<?xml version="1.0" encoding="UTF-8"?>
<svg xmlns="http://www.w3.org/2000/svg" viewBox="0 0 1500 900" width="1500" height="900" font-family="Segoe UI,Inter,Arial,sans-serif">
<defs>
  <marker id="fk" markerWidth="8" markerHeight="6" refX="7" refY="3" orient="auto"><polygon points="0 0,8 3,0 6" fill="#64748b"/></marker>
  <marker id="fkG" markerWidth="8" markerHeight="6" refX="7" refY="3" orient="auto"><polygon points="0 0,8 3,0 6" fill="#16a34a"/></marker>
  <marker id="fkB" markerWidth="8" markerHeight="6" refX="7" refY="3" orient="auto"><polygon points="0 0,8 3,0 6" fill="#2563eb"/></marker>
  <marker id="fkP" markerWidth="8" markerHeight="6" refX="7" refY="3" orient="auto"><polygon points="0 0,8 3,0 6" fill="#7c3aed"/></marker>
  <marker id="fkT" markerWidth="8" markerHeight="6" refX="7" refY="3" orient="auto"><polygon points="0 0,8 3,0 6" fill="#0d9488"/></marker>
  <filter id="sh" x="-5%" y="-5%" width="110%" height="110%"><feDropShadow dx="0" dy="2" stdDeviation="3" flood-color="#000000" flood-opacity="0.06"/></filter>
</defs>
<rect width="1500" height="900" fill="#FFFFFF"/>
<g opacity="0.35" stroke="#F1F5F9" stroke-width="1">
  <line x1="0" y1="80" x2="1500" y2="80"/>
  <line x1="0" y1="160" x2="1500" y2="160"/>
  <line x1="0" y1="240" x2="1500" y2="240"/>
  <line x1="0" y1="320" x2="1500" y2="320"/>
  <line x1="0" y1="400" x2="1500" y2="400"/>
  <line x1="0" y1="480" x2="1500" y2="480"/>
  <line x1="0" y1="560" x2="1500" y2="560"/>
  <line x1="0" y1="640" x2="1500" y2="640"/>
  <line x1="0" y1="720" x2="1500" y2="720"/>
  <line x1="0" y1="800" x2="1500" y2="800"/>
  <line x1="100" y1="0" x2="100" y2="900"/>
  <line x1="200" y1="0" x2="200" y2="900"/>
  <line x1="300" y1="0" x2="300" y2="900"/>
  <line x1="400" y1="0" x2="400" y2="900"/>
  <line x1="500" y1="0" x2="500" y2="900"/>
  <line x1="600" y1="0" x2="600" y2="900"/>
  <line x1="700" y1="0" x2="700" y2="900"/>
  <line x1="800" y1="0" x2="800" y2="900"/>
  <line x1="900" y1="0" x2="900" y2="900"/>
  <line x1="1000" y1="0" x2="1000" y2="900"/>
  <line x1="1100" y1="0" x2="1100" y2="900"/>
  <line x1="1200" y1="0" x2="1200" y2="900"/>
  <line x1="1300" y1="0" x2="1300" y2="900"/>
  <line x1="1400" y1="0" x2="1400" y2="900"/>
</g>
<rect x="0" y="0" width="1500" height="54" fill="#FFFFFF" stroke="#CBD5E1" stroke-width="1.5"/>
<text x="24" y="34" font-size="18" font-weight="700" fill="#1D4ED8">HackWave &#183; KrishiVaani</text>
<text x="240" y="34" font-size="13" font-weight="600" fill="#475569">Entity-Relationship Diagram &#8212; Supabase PostgreSQL + pgvector Schema (Editable PPT View)</text>
<text x="1476" y="34" text-anchor="end" font-size="10" fill="#16A34A" font-weight="600">Migrations: 20260922000000 &amp; 20260922000001 Verified</text>
<rect x="30" y="68" width="220" height="246" rx="8" fill="#FFFFFF" stroke="#16A34A" stroke-width="2" filter="url(#sh)"/>
<line x1="30" y1="100" x2="250" y2="100" stroke="#16A34A" stroke-width="1.5"/>
<text x="42" y="89" font-size="11.5" font-weight="700" fill="#15803D">farmer_profiles</text>
<text x="240" y="89" text-anchor="end" font-size="8" fill="#64748B">User Registry</text>
<line x1="36" y1="121" x2="244" y2="121" stroke="#F1F5F9" stroke-width="1"/>
<text x="40" y="116" font-size="8.5" font-weight="700" fill="#D97706">PK</text>
<text x="64" y="116" font-size="9" font-weight="600" fill="#1E293B">id</text>
<text x="240" y="116" text-anchor="end" font-size="8" fill="#64748B">uuid</text>
<line x1="36" y1="139" x2="244" y2="139" stroke="#F1F5F9" stroke-width="1"/>
<text x="40" y="134" font-size="8" fill="#CBD5E1">&#183;</text>
<text x="64" y="134" font-size="9" font-weight="600" fill="#1E293B">phone_number</text>
<text x="240" y="134" text-anchor="end" font-size="8" fill="#64748B">text</text>
<line x1="36" y1="157" x2="244" y2="157" stroke="#F1F5F9" stroke-width="1"/>
<text x="40" y="152" font-size="8" fill="#CBD5E1">&#183;</text>
<text x="64" y="152" font-size="9" font-weight="600" fill="#1E293B">name</text>
<text x="240" y="152" text-anchor="end" font-size="8" fill="#64748B">text</text>
<line x1="36" y1="175" x2="244" y2="175" stroke="#F1F5F9" stroke-width="1"/>
<text x="40" y="170" font-size="8" fill="#CBD5E1">&#183;</text>
<text x="64" y="170" font-size="9" font-weight="600" fill="#1E293B">language_preference</text>
<text x="240" y="170" text-anchor="end" font-size="8" fill="#64748B">text</text>
<line x1="36" y1="193" x2="244" y2="193" stroke="#F1F5F9" stroke-width="1"/>
<text x="40" y="188" font-size="8" fill="#CBD5E1">&#183;</text>
<text x="64" y="188" font-size="9" font-weight="600" fill="#1E293B">state</text>
<text x="240" y="188" text-anchor="end" font-size="8" fill="#64748B">text</text>
<line x1="36" y1="211" x2="244" y2="211" stroke="#F1F5F9" stroke-width="1"/>
<text x="40" y="206" font-size="8" fill="#CBD5E1">&#183;</text>
<text x="64" y="206" font-size="9" font-weight="600" fill="#1E293B">district</text>
<text x="240" y="206" text-anchor="end" font-size="8" fill="#64748B">text</text>
<line x1="36" y1="229" x2="244" y2="229" stroke="#F1F5F9" stroke-width="1"/>
<text x="40" y="224" font-size="8" fill="#CBD5E1">&#183;</text>
<text x="64" y="224" font-size="9" font-weight="600" fill="#1E293B">created_at</text>
<text x="240" y="224" text-anchor="end" font-size="8" fill="#64748B">timestamptz</text>
<line x1="36" y1="247" x2="244" y2="247" stroke="#F1F5F9" stroke-width="1"/>
<text x="40" y="242" font-size="8" fill="#CBD5E1">&#183;</text>
<text x="64" y="242" font-size="9" font-weight="600" fill="#1E293B">updated_at</text>
<text x="240" y="242" text-anchor="end" font-size="8" fill="#64748B">timestamptz</text>
<rect x="30" y="336" width="220" height="192" rx="8" fill="#FFFFFF" stroke="#16A34A" stroke-width="2" filter="url(#sh)"/>
<line x1="30" y1="368" x2="250" y2="368" stroke="#16A34A" stroke-width="1.5"/>
<text x="42" y="357" font-size="11.5" font-weight="700" fill="#15803D">farmer_crops</text>
<text x="240" y="357" text-anchor="end" font-size="8" fill="#64748B">Farmer Cultivations</text>
<line x1="36" y1="389" x2="244" y2="389" stroke="#F1F5F9" stroke-width="1"/>
<text x="40" y="384" font-size="8.5" font-weight="700" fill="#D97706">PK</text>
<text x="64" y="384" font-size="9" font-weight="600" fill="#1E293B">id</text>
<text x="240" y="384" text-anchor="end" font-size="8" fill="#64748B">uuid</text>
<line x1="36" y1="407" x2="244" y2="407" stroke="#F1F5F9" stroke-width="1"/>
<text x="40" y="402" font-size="8.5" font-weight="700" fill="#0284C7">FK</text>
<text x="64" y="402" font-size="9" font-weight="600" fill="#1E293B">farmer_id</text>
<text x="240" y="402" text-anchor="end" font-size="8" fill="#64748B">uuid</text>
<line x1="36" y1="425" x2="244" y2="425" stroke="#F1F5F9" stroke-width="1"/>
<text x="40" y="420" font-size="8" fill="#CBD5E1">&#183;</text>
<text x="64" y="420" font-size="9" font-weight="600" fill="#1E293B">crop_name</text>
<text x="240" y="420" text-anchor="end" font-size="8" fill="#64748B">text</text>
<line x1="36" y1="443" x2="244" y2="443" stroke="#F1F5F9" stroke-width="1"/>
<text x="40" y="438" font-size="8" fill="#CBD5E1">&#183;</text>
<text x="64" y="438" font-size="9" font-weight="600" fill="#1E293B">area_acres</text>
<text x="240" y="438" text-anchor="end" font-size="8" fill="#64748B">numeric</text>
<line x1="36" y1="461" x2="244" y2="461" stroke="#F1F5F9" stroke-width="1"/>
<text x="40" y="456" font-size="8" fill="#CBD5E1">&#183;</text>
<text x="64" y="456" font-size="9" font-weight="600" fill="#1E293B">sowing_date</text>
<text x="240" y="456" text-anchor="end" font-size="8" fill="#64748B">date</text>
<line x1="36" y1="479" x2="244" y2="479" stroke="#F1F5F9" stroke-width="1"/>
<text x="40" y="474" font-size="8" fill="#CBD5E1">&#183;</text>
<text x="64" y="474" font-size="9" font-weight="600" fill="#1E293B">season</text>
<text x="240" y="474" text-anchor="end" font-size="8" fill="#64748B">text</text>
<line x1="36" y1="497" x2="244" y2="497" stroke="#F1F5F9" stroke-width="1"/>
<text x="40" y="492" font-size="8" fill="#CBD5E1">&#183;</text>
<text x="64" y="492" font-size="9" font-weight="600" fill="#1E293B">created_at</text>
<text x="240" y="492" text-anchor="end" font-size="8" fill="#64748B">timestamptz</text>
<rect x="294" y="68" width="224" height="168" rx="8" fill="#FFFFFF" stroke="#2563EB" stroke-width="2" filter="url(#sh)"/>
<line x1="294" y1="100" x2="518" y2="100" stroke="#2563EB" stroke-width="1.5"/>
<text x="306" y="89" font-size="11.5" font-weight="700" fill="#1D4ED8">conversations</text>
<text x="508" y="89" text-anchor="end" font-size="8" fill="#64748B">Chat Sessions</text>
<line x1="300" y1="121" x2="512" y2="121" stroke="#F1F5F9" stroke-width="1"/>
<text x="304" y="116" font-size="8.5" font-weight="700" fill="#D97706">PK</text>
<text x="328" y="116" font-size="9" font-weight="600" fill="#1E293B">id</text>
<text x="508" y="116" text-anchor="end" font-size="8" fill="#64748B">uuid</text>
<line x1="300" y1="139" x2="512" y2="139" stroke="#F1F5F9" stroke-width="1"/>
<text x="304" y="134" font-size="8.5" font-weight="700" fill="#0284C7">FK</text>
<text x="328" y="134" font-size="9" font-weight="600" fill="#1E293B">farmer_id</text>
<text x="508" y="134" text-anchor="end" font-size="8" fill="#64748B">uuid</text>
<line x1="300" y1="157" x2="512" y2="157" stroke="#F1F5F9" stroke-width="1"/>
<text x="304" y="152" font-size="8" fill="#CBD5E1">&#183;</text>
<text x="328" y="152" font-size="9" font-weight="600" fill="#1E293B">started_at</text>
<text x="508" y="152" text-anchor="end" font-size="8" fill="#64748B">timestamptz</text>
<line x1="300" y1="175" x2="512" y2="175" stroke="#F1F5F9" stroke-width="1"/>
<text x="304" y="170" font-size="8" fill="#CBD5E1">&#183;</text>
<text x="328" y="170" font-size="9" font-weight="600" fill="#1E293B">last_activity_at</text>
<text x="508" y="170" text-anchor="end" font-size="8" fill="#64748B">timestamptz</text>
<line x1="300" y1="193" x2="512" y2="193" stroke="#F1F5F9" stroke-width="1"/>
<text x="304" y="188" font-size="8" fill="#CBD5E1">&#183;</text>
<text x="328" y="188" font-size="9" font-weight="600" fill="#1E293B">status</text>
<text x="508" y="188" text-anchor="end" font-size="8" fill="#64748B">text</text>
<line x1="300" y1="211" x2="512" y2="211" stroke="#F1F5F9" stroke-width="1"/>
<text x="304" y="206" font-size="8" fill="#CBD5E1">&#183;</text>
<text x="328" y="206" font-size="9" font-weight="600" fill="#1E293B">created_at</text>
<text x="508" y="206" text-anchor="end" font-size="8" fill="#64748B">timestamptz</text>
<rect x="294" y="264" width="224" height="234" rx="8" fill="#FFFFFF" stroke="#2563EB" stroke-width="2" filter="url(#sh)"/>
<line x1="294" y1="296" x2="518" y2="296" stroke="#2563EB" stroke-width="1.5"/>
<text x="306" y="285" font-size="11.5" font-weight="700" fill="#1D4ED8">query_logs</text>
<text x="508" y="285" text-anchor="end" font-size="8" fill="#64748B">Query Intake Audit</text>
<line x1="300" y1="317" x2="512" y2="317" stroke="#F1F5F9" stroke-width="1"/>
<text x="304" y="312" font-size="8.5" font-weight="700" fill="#D97706">PK</text>
<text x="328" y="312" font-size="9" font-weight="600" fill="#1E293B">id</text>
<text x="508" y="312" text-anchor="end" font-size="8" fill="#64748B">uuid</text>
<line x1="300" y1="335" x2="512" y2="335" stroke="#F1F5F9" stroke-width="1"/>
<text x="304" y="330" font-size="8.5" font-weight="700" fill="#0284C7">FK</text>
<text x="328" y="330" font-size="9" font-weight="600" fill="#1E293B">conversation_id</text>
<text x="508" y="330" text-anchor="end" font-size="8" fill="#64748B">uuid</text>
<line x1="300" y1="353" x2="512" y2="353" stroke="#F1F5F9" stroke-width="1"/>
<text x="304" y="348" font-size="8" fill="#CBD5E1">&#183;</text>
<text x="328" y="348" font-size="9" font-weight="600" fill="#1E293B">query_text</text>
<text x="508" y="348" text-anchor="end" font-size="8" fill="#64748B">text</text>
<line x1="300" y1="371" x2="512" y2="371" stroke="#F1F5F9" stroke-width="1"/>
<text x="304" y="366" font-size="8" fill="#CBD5E1">&#183;</text>
<text x="328" y="366" font-size="9" font-weight="600" fill="#1E293B">detected_intent</text>
<text x="508" y="366" text-anchor="end" font-size="8" fill="#64748B">text</text>
<line x1="300" y1="389" x2="512" y2="389" stroke="#F1F5F9" stroke-width="1"/>
<text x="304" y="384" font-size="8" fill="#CBD5E1">&#183;</text>
<text x="328" y="384" font-size="9" font-weight="600" fill="#1E293B">detected_language</text>
<text x="508" y="384" text-anchor="end" font-size="8" fill="#64748B">text</text>
<line x1="300" y1="407" x2="512" y2="407" stroke="#F1F5F9" stroke-width="1"/>
<text x="304" y="402" font-size="8" fill="#CBD5E1">&#183;</text>
<text x="328" y="402" font-size="9" font-weight="600" fill="#1E293B">extracted_entities</text>
<text x="508" y="402" text-anchor="end" font-size="8" fill="#64748B">jsonb</text>
<line x1="300" y1="425" x2="512" y2="425" stroke="#F1F5F9" stroke-width="1"/>
<text x="304" y="420" font-size="8" fill="#CBD5E1">&#183;</text>
<text x="328" y="420" font-size="9" font-weight="600" fill="#1E293B">created_at</text>
<text x="508" y="420" text-anchor="end" font-size="8" fill="#64748B">timestamptz</text>
<rect x="294" y="524" width="224" height="252" rx="8" fill="#FFFFFF" stroke="#2563EB" stroke-width="2" filter="url(#sh)"/>
<line x1="294" y1="556" x2="518" y2="556" stroke="#2563EB" stroke-width="1.5"/>
<text x="306" y="545" font-size="11.5" font-weight="700" fill="#1D4ED8">response_logs</text>
<text x="508" y="545" text-anchor="end" font-size="8" fill="#64748B">Advisor Responses</text>
<line x1="300" y1="577" x2="512" y2="577" stroke="#F1F5F9" stroke-width="1"/>
<text x="304" y="572" font-size="8.5" font-weight="700" fill="#D97706">PK</text>
<text x="328" y="572" font-size="9" font-weight="600" fill="#1E293B">id</text>
<text x="508" y="572" text-anchor="end" font-size="8" fill="#64748B">uuid</text>
<line x1="300" y1="595" x2="512" y2="595" stroke="#F1F5F9" stroke-width="1"/>
<text x="304" y="590" font-size="8.5" font-weight="700" fill="#0284C7">FK</text>
<text x="328" y="590" font-size="9" font-weight="600" fill="#1E293B">query_log_id</text>
<text x="508" y="590" text-anchor="end" font-size="8" fill="#64748B">uuid</text>
<line x1="300" y1="613" x2="512" y2="613" stroke="#F1F5F9" stroke-width="1"/>
<text x="304" y="608" font-size="8" fill="#CBD5E1">&#183;</text>
<text x="328" y="608" font-size="9" font-weight="600" fill="#1E293B">response_text</text>
<text x="508" y="608" text-anchor="end" font-size="8" fill="#64748B">text</text>
<line x1="300" y1="631" x2="512" y2="631" stroke="#F1F5F9" stroke-width="1"/>
<text x="304" y="626" font-size="8" fill="#CBD5E1">&#183;</text>
<text x="328" y="626" font-size="9" font-weight="600" fill="#1E293B">grounding_score</text>
<text x="508" y="626" text-anchor="end" font-size="8" fill="#64748B">numeric</text>
<line x1="300" y1="649" x2="512" y2="649" stroke="#F1F5F9" stroke-width="1"/>
<text x="304" y="644" font-size="8" fill="#CBD5E1">&#183;</text>
<text x="328" y="644" font-size="9" font-weight="600" fill="#1E293B">sources_cited</text>
<text x="508" y="644" text-anchor="end" font-size="8" fill="#64748B">jsonb</text>
<line x1="300" y1="667" x2="512" y2="667" stroke="#F1F5F9" stroke-width="1"/>
<text x="304" y="662" font-size="8" fill="#CBD5E1">&#183;</text>
<text x="328" y="662" font-size="9" font-weight="600" fill="#1E293B">latency_ms</text>
<text x="508" y="662" text-anchor="end" font-size="8" fill="#64748B">integer</text>
<line x1="300" y1="685" x2="512" y2="685" stroke="#F1F5F9" stroke-width="1"/>
<text x="304" y="680" font-size="8" fill="#CBD5E1">&#183;</text>
<text x="328" y="680" font-size="9" font-weight="600" fill="#1E293B">tokens_used</text>
<text x="508" y="680" text-anchor="end" font-size="8" fill="#64748B">integer</text>
<line x1="300" y1="703" x2="512" y2="703" stroke="#F1F5F9" stroke-width="1"/>
<text x="304" y="698" font-size="8" fill="#CBD5E1">&#183;</text>
<text x="328" y="698" font-size="9" font-weight="600" fill="#1E293B">created_at</text>
<text x="508" y="698" text-anchor="end" font-size="8" fill="#64748B">timestamptz</text>
<rect x="572" y="68" width="224" height="312" rx="8" fill="#FFFFFF" stroke="#7C3AED" stroke-width="2" filter="url(#sh)"/>
<line x1="572" y1="100" x2="796" y2="100" stroke="#7C3AED" stroke-width="1.5"/>
<text x="584" y="89" font-size="11.5" font-weight="700" fill="#6D28D9">source_documents</text>
<text x="786" y="89" text-anchor="end" font-size="8" fill="#64748B">ICAR / Govt Provenance</text>
<line x1="578" y1="121" x2="790" y2="121" stroke="#F1F5F9" stroke-width="1"/>
<text x="582" y="116" font-size="8.5" font-weight="700" fill="#D97706">PK</text>
<text x="606" y="116" font-size="9" font-weight="600" fill="#1E293B">id</text>
<text x="786" y="116" text-anchor="end" font-size="8" fill="#64748B">uuid</text>
<line x1="578" y1="139" x2="790" y2="139" stroke="#F1F5F9" stroke-width="1"/>
<text x="582" y="134" font-size="8" fill="#CBD5E1">&#183;</text>
<text x="606" y="134" font-size="9" font-weight="600" fill="#1E293B">title</text>
<text x="786" y="134" text-anchor="end" font-size="8" fill="#64748B">text</text>
<line x1="578" y1="157" x2="790" y2="157" stroke="#F1F5F9" stroke-width="1"/>
<text x="582" y="152" font-size="8" fill="#CBD5E1">&#183;</text>
<text x="606" y="152" font-size="9" font-weight="600" fill="#1E293B">source_org</text>
<text x="786" y="152" text-anchor="end" font-size="8" fill="#64748B">text</text>
<line x1="578" y1="175" x2="790" y2="175" stroke="#F1F5F9" stroke-width="1"/>
<text x="582" y="170" font-size="8" fill="#CBD5E1">&#183;</text>
<text x="606" y="170" font-size="9" font-weight="600" fill="#1E293B">doc_type</text>
<text x="786" y="170" text-anchor="end" font-size="8" fill="#64748B">text</text>
<line x1="578" y1="193" x2="790" y2="193" stroke="#F1F5F9" stroke-width="1"/>
<text x="582" y="188" font-size="8" fill="#CBD5E1">&#183;</text>
<text x="606" y="188" font-size="9" font-weight="600" fill="#1E293B">state</text>
<text x="786" y="188" text-anchor="end" font-size="8" fill="#64748B">text</text>
<line x1="578" y1="211" x2="790" y2="211" stroke="#F1F5F9" stroke-width="1"/>
<text x="582" y="206" font-size="8" fill="#CBD5E1">&#183;</text>
<text x="606" y="206" font-size="9" font-weight="600" fill="#1E293B">crop</text>
<text x="786" y="206" text-anchor="end" font-size="8" fill="#64748B">text</text>
<line x1="578" y1="229" x2="790" y2="229" stroke="#F1F5F9" stroke-width="1"/>
<text x="582" y="224" font-size="8" fill="#CBD5E1">&#183;</text>
<text x="606" y="224" font-size="9" font-weight="600" fill="#1E293B">season</text>
<text x="786" y="224" text-anchor="end" font-size="8" fill="#64748B">text</text>
<line x1="578" y1="247" x2="790" y2="247" stroke="#F1F5F9" stroke-width="1"/>
<text x="582" y="242" font-size="8" fill="#CBD5E1">&#183;</text>
<text x="606" y="242" font-size="9" font-weight="600" fill="#1E293B">version</text>
<text x="786" y="242" text-anchor="end" font-size="8" fill="#64748B">text</text>
<line x1="578" y1="265" x2="790" y2="265" stroke="#F1F5F9" stroke-width="1"/>
<text x="582" y="260" font-size="8" fill="#CBD5E1">&#183;</text>
<text x="606" y="260" font-size="9" font-weight="600" fill="#1E293B">checksum</text>
<text x="786" y="260" text-anchor="end" font-size="8" fill="#64748B">text</text>
<line x1="578" y1="283" x2="790" y2="283" stroke="#F1F5F9" stroke-width="1"/>
<text x="582" y="278" font-size="8" fill="#CBD5E1">&#183;</text>
<text x="606" y="278" font-size="9" font-weight="600" fill="#1E293B">status</text>
<text x="786" y="278" text-anchor="end" font-size="8" fill="#64748B">text</text>
<line x1="578" y1="301" x2="790" y2="301" stroke="#F1F5F9" stroke-width="1"/>
<text x="582" y="296" font-size="8" fill="#CBD5E1">&#183;</text>
<text x="606" y="296" font-size="9" font-weight="600" fill="#1E293B">created_at</text>
<text x="786" y="296" text-anchor="end" font-size="8" fill="#64748B">timestamptz</text>
<rect x="572" y="404" width="224" height="316" rx="8" fill="#FFFFFF" stroke="#7C3AED" stroke-width="2" filter="url(#sh)"/>
<line x1="572" y1="436" x2="796" y2="436" stroke="#7C3AED" stroke-width="1.5"/>
<text x="584" y="425" font-size="11.5" font-weight="700" fill="#6D28D9">knowledge_chunks</text>
<text x="786" y="425" text-anchor="end" font-size="8" fill="#64748B">pgvector Chunks</text>
<line x1="578" y1="457" x2="790" y2="457" stroke="#F1F5F9" stroke-width="1"/>
<text x="582" y="452" font-size="8.5" font-weight="700" fill="#D97706">PK</text>
<text x="606" y="452" font-size="9" font-weight="600" fill="#1E293B">id</text>
<text x="786" y="452" text-anchor="end" font-size="8" fill="#64748B">uuid</text>
<line x1="578" y1="475" x2="790" y2="475" stroke="#F1F5F9" stroke-width="1"/>
<text x="582" y="470" font-size="8.5" font-weight="700" fill="#0284C7">FK</text>
<text x="606" y="470" font-size="9" font-weight="600" fill="#1E293B">document_id</text>
<text x="786" y="470" text-anchor="end" font-size="8" fill="#64748B">uuid</text>
<line x1="578" y1="493" x2="790" y2="493" stroke="#F1F5F9" stroke-width="1"/>
<text x="582" y="488" font-size="8" fill="#CBD5E1">&#183;</text>
<text x="606" y="488" font-size="9" font-weight="600" fill="#1E293B">chunk_index</text>
<text x="786" y="488" text-anchor="end" font-size="8" fill="#64748B">integer</text>
<line x1="578" y1="511" x2="790" y2="511" stroke="#F1F5F9" stroke-width="1"/>
<text x="582" y="506" font-size="8" fill="#CBD5E1">&#183;</text>
<text x="606" y="506" font-size="9" font-weight="600" fill="#1E293B">content</text>
<text x="786" y="506" text-anchor="end" font-size="8" fill="#64748B">text</text>
<line x1="578" y1="529" x2="790" y2="529" stroke="#F1F5F9" stroke-width="1"/>
<text x="582" y="524" font-size="8" fill="#CBD5E1">&#183;</text>
<text x="606" y="524" font-size="9" font-weight="600" fill="#1E293B">token_count</text>
<text x="786" y="524" text-anchor="end" font-size="8" fill="#64748B">integer</text>
<line x1="578" y1="547" x2="790" y2="547" stroke="#F1F5F9" stroke-width="1"/>
<text x="582" y="542" font-size="8" fill="#CBD5E1">&#183;</text>
<text x="606" y="542" font-size="9" font-weight="600" fill="#1E293B">embedding</text>
<text x="786" y="542" text-anchor="end" font-size="8" fill="#64748B">vector(768)</text>
<line x1="578" y1="565" x2="790" y2="565" stroke="#F1F5F9" stroke-width="1"/>
<text x="582" y="560" font-size="8" fill="#CBD5E1">&#183;</text>
<text x="606" y="560" font-size="9" font-weight="600" fill="#1E293B">domain</text>
<text x="786" y="560" text-anchor="end" font-size="8" fill="#64748B">text</text>
<line x1="578" y1="583" x2="790" y2="583" stroke="#F1F5F9" stroke-width="1"/>
<text x="582" y="578" font-size="8" fill="#CBD5E1">&#183;</text>
<text x="606" y="578" font-size="9" font-weight="600" fill="#1E293B">crop</text>
<text x="786" y="578" text-anchor="end" font-size="8" fill="#64748B">text</text>
<line x1="578" y1="601" x2="790" y2="601" stroke="#F1F5F9" stroke-width="1"/>
<text x="582" y="596" font-size="8" fill="#CBD5E1">&#183;</text>
<text x="606" y="596" font-size="9" font-weight="600" fill="#1E293B">section_header</text>
<text x="786" y="596" text-anchor="end" font-size="8" fill="#64748B">text</text>
<line x1="578" y1="619" x2="790" y2="619" stroke="#F1F5F9" stroke-width="1"/>
<text x="582" y="614" font-size="8" fill="#CBD5E1">&#183;</text>
<text x="606" y="614" font-size="9" font-weight="600" fill="#1E293B">created_at</text>
<text x="786" y="614" text-anchor="end" font-size="8" fill="#64748B">timestamptz</text>
<rect x="850" y="68" width="234" height="290" rx="8" fill="#FFFFFF" stroke="#0D9488" stroke-width="2" filter="url(#sh)"/>
<line x1="850" y1="100" x2="1084" y2="100" stroke="#0D9488" stroke-width="1.5"/>
<text x="862" y="89" font-size="11.5" font-weight="700" fill="#0F766E">government_schemes</text>
<text x="1074" y="89" text-anchor="end" font-size="8" fill="#64748B">Scheme Catalog</text>
<line x1="856" y1="121" x2="1078" y2="121" stroke="#F1F5F9" stroke-width="1"/>
<text x="860" y="116" font-size="8.5" font-weight="700" fill="#D97706">PK</text>
<text x="884" y="116" font-size="9" font-weight="600" fill="#1E293B">id</text>
<text x="1074" y="116" text-anchor="end" font-size="8" fill="#64748B">uuid</text>
<line x1="856" y1="139" x2="1078" y2="139" stroke="#F1F5F9" stroke-width="1"/>
<text x="860" y="134" font-size="8" fill="#CBD5E1">&#183;</text>
<text x="884" y="134" font-size="9" font-weight="600" fill="#1E293B">scheme_name</text>
<text x="1074" y="134" text-anchor="end" font-size="8" fill="#64748B">text</text>
<line x1="856" y1="157" x2="1078" y2="157" stroke="#F1F5F9" stroke-width="1"/>
<text x="860" y="152" font-size="8" fill="#CBD5E1">&#183;</text>
<text x="884" y="152" font-size="9" font-weight="600" fill="#1E293B">ministry</text>
<text x="1074" y="152" text-anchor="end" font-size="8" fill="#64748B">text</text>
<line x1="856" y1="175" x2="1078" y2="175" stroke="#F1F5F9" stroke-width="1"/>
<text x="860" y="170" font-size="8" fill="#CBD5E1">&#183;</text>
<text x="884" y="170" font-size="9" font-weight="600" fill="#1E293B">target_beneficiary</text>
<text x="1074" y="170" text-anchor="end" font-size="8" fill="#64748B">text</text>
<line x1="856" y1="193" x2="1078" y2="193" stroke="#F1F5F9" stroke-width="1"/>
<text x="860" y="188" font-size="8" fill="#CBD5E1">&#183;</text>
<text x="884" y="188" font-size="9" font-weight="600" fill="#1E293B">benefit_details</text>
<text x="1074" y="188" text-anchor="end" font-size="8" fill="#64748B">text</text>
<line x1="856" y1="211" x2="1078" y2="211" stroke="#F1F5F9" stroke-width="1"/>
<text x="860" y="206" font-size="8" fill="#CBD5E1">&#183;</text>
<text x="884" y="206" font-size="9" font-weight="600" fill="#1E293B">eligibility_criteria</text>
<text x="1074" y="206" text-anchor="end" font-size="8" fill="#64748B">jsonb</text>
<line x1="856" y1="229" x2="1078" y2="229" stroke="#F1F5F9" stroke-width="1"/>
<text x="860" y="224" font-size="8" fill="#CBD5E1">&#183;</text>
<text x="884" y="224" font-size="9" font-weight="600" fill="#1E293B">application_url</text>
<text x="1074" y="224" text-anchor="end" font-size="8" fill="#64748B">text</text>
<line x1="856" y1="247" x2="1078" y2="247" stroke="#F1F5F9" stroke-width="1"/>
<text x="860" y="242" font-size="8" fill="#CBD5E1">&#183;</text>
<text x="884" y="242" font-size="9" font-weight="600" fill="#1E293B">state</text>
<text x="1074" y="242" text-anchor="end" font-size="8" fill="#64748B">text</text>
<line x1="856" y1="265" x2="1078" y2="265" stroke="#F1F5F9" stroke-width="1"/>
<text x="860" y="260" font-size="8" fill="#CBD5E1">&#183;</text>
<text x="884" y="260" font-size="9" font-weight="600" fill="#1E293B">is_active</text>
<text x="1074" y="260" text-anchor="end" font-size="8" fill="#64748B">boolean</text>
<line x1="856" y1="283" x2="1078" y2="283" stroke="#F1F5F9" stroke-width="1"/>
<text x="860" y="278" font-size="8" fill="#CBD5E1">&#183;</text>
<text x="884" y="278" font-size="9" font-weight="600" fill="#1E293B">created_at</text>
<text x="1074" y="278" text-anchor="end" font-size="8" fill="#64748B">timestamptz</text>
<rect x="850" y="382" width="234" height="320" rx="8" fill="#FFFFFF" stroke="#0D9488" stroke-width="2" filter="url(#sh)"/>
<line x1="850" y1="414" x2="1084" y2="414" stroke="#0D9488" stroke-width="1.5"/>
<text x="862" y="403" font-size="11.5" font-weight="700" fill="#0F766E">mandi_prices</text>
<text x="1074" y="403" text-anchor="end" font-size="8" fill="#64748B">APMC Market Records</text>
<line x1="856" y1="435" x2="1078" y2="435" stroke="#F1F5F9" stroke-width="1"/>
<text x="860" y="430" font-size="8.5" font-weight="700" fill="#D97706">PK</text>
<text x="884" y="430" font-size="9" font-weight="600" fill="#1E293B">id</text>
<text x="1074" y="430" text-anchor="end" font-size="8" fill="#64748B">uuid</text>
<line x1="856" y1="453" x2="1078" y2="453" stroke="#F1F5F9" stroke-width="1"/>
<text x="860" y="448" font-size="8" fill="#CBD5E1">&#183;</text>
<text x="884" y="448" font-size="9" font-weight="600" fill="#1E293B">state</text>
<text x="1074" y="448" text-anchor="end" font-size="8" fill="#64748B">text</text>
<line x1="856" y1="471" x2="1078" y2="471" stroke="#F1F5F9" stroke-width="1"/>
<text x="860" y="466" font-size="8" fill="#CBD5E1">&#183;</text>
<text x="884" y="466" font-size="9" font-weight="600" fill="#1E293B">district</text>
<text x="1074" y="466" text-anchor="end" font-size="8" fill="#64748B">text</text>
<line x1="856" y1="489" x2="1078" y2="489" stroke="#F1F5F9" stroke-width="1"/>
<text x="860" y="484" font-size="8" fill="#CBD5E1">&#183;</text>
<text x="884" y="484" font-size="9" font-weight="600" fill="#1E293B">market</text>
<text x="1074" y="484" text-anchor="end" font-size="8" fill="#64748B">text</text>
<line x1="856" y1="507" x2="1078" y2="507" stroke="#F1F5F9" stroke-width="1"/>
<text x="860" y="502" font-size="8" fill="#CBD5E1">&#183;</text>
<text x="884" y="502" font-size="9" font-weight="600" fill="#1E293B">commodity</text>
<text x="1074" y="502" text-anchor="end" font-size="8" fill="#64748B">text</text>
<line x1="856" y1="525" x2="1078" y2="525" stroke="#F1F5F9" stroke-width="1"/>
<text x="860" y="520" font-size="8" fill="#CBD5E1">&#183;</text>
<text x="884" y="520" font-size="9" font-weight="600" fill="#1E293B">variety</text>
<text x="1074" y="520" text-anchor="end" font-size="8" fill="#64748B">text</text>
<line x1="856" y1="543" x2="1078" y2="543" stroke="#F1F5F9" stroke-width="1"/>
<text x="860" y="538" font-size="8" fill="#CBD5E1">&#183;</text>
<text x="884" y="538" font-size="9" font-weight="600" fill="#1E293B">arrival_date</text>
<text x="1074" y="538" text-anchor="end" font-size="8" fill="#64748B">date</text>
<line x1="856" y1="561" x2="1078" y2="561" stroke="#F1F5F9" stroke-width="1"/>
<text x="860" y="556" font-size="8" fill="#CBD5E1">&#183;</text>
<text x="884" y="556" font-size="9" font-weight="600" fill="#1E293B">min_price</text>
<text x="1074" y="556" text-anchor="end" font-size="8" fill="#64748B">numeric</text>
<line x1="856" y1="579" x2="1078" y2="579" stroke="#F1F5F9" stroke-width="1"/>
<text x="860" y="574" font-size="8" fill="#CBD5E1">&#183;</text>
<text x="884" y="574" font-size="9" font-weight="600" fill="#1E293B">max_price</text>
<text x="1074" y="574" text-anchor="end" font-size="8" fill="#64748B">numeric</text>
<line x1="856" y1="597" x2="1078" y2="597" stroke="#F1F5F9" stroke-width="1"/>
<text x="860" y="592" font-size="8" fill="#CBD5E1">&#183;</text>
<text x="884" y="592" font-size="9" font-weight="600" fill="#1E293B">modal_price</text>
<text x="1074" y="592" text-anchor="end" font-size="8" fill="#64748B">numeric</text>
<line x1="856" y1="615" x2="1078" y2="615" stroke="#F1F5F9" stroke-width="1"/>
<text x="860" y="610" font-size="8" fill="#CBD5E1">&#183;</text>
<text x="884" y="610" font-size="9" font-weight="600" fill="#1E293B">created_at</text>
<text x="1074" y="610" text-anchor="end" font-size="8" fill="#64748B">timestamptz</text>
<rect x="1130" y="68" width="234" height="234" rx="8" fill="#FFFFFF" stroke="#D97706" stroke-width="2" filter="url(#sh)"/>
<line x1="1130" y1="100" x2="1364" y2="100" stroke="#D97706" stroke-width="1.5"/>
<text x="1142" y="89" font-size="11.5" font-weight="700" fill="#B45309">sync_logs</text>
<text x="1354" y="89" text-anchor="end" font-size="8" fill="#64748B">Data Sync Pipeline</text>
<line x1="1136" y1="121" x2="1358" y2="121" stroke="#F1F5F9" stroke-width="1"/>
<text x="1140" y="116" font-size="8.5" font-weight="700" fill="#D97706">PK</text>
<text x="1164" y="116" font-size="9" font-weight="600" fill="#1E293B">id</text>
<text x="1354" y="116" text-anchor="end" font-size="8" fill="#64748B">uuid</text>
<line x1="1136" y1="139" x2="1358" y2="139" stroke="#F1F5F9" stroke-width="1"/>
<text x="1140" y="134" font-size="8" fill="#CBD5E1">&#183;</text>
<text x="1164" y="134" font-size="9" font-weight="600" fill="#1E293B">pipeline_name</text>
<text x="1354" y="134" text-anchor="end" font-size="8" fill="#64748B">text</text>
<line x1="1136" y1="157" x2="1358" y2="157" stroke="#F1F5F9" stroke-width="1"/>
<text x="1140" y="152" font-size="8" fill="#CBD5E1">&#183;</text>
<text x="1164" y="152" font-size="9" font-weight="600" fill="#1E293B">status</text>
<text x="1354" y="152" text-anchor="end" font-size="8" fill="#64748B">text</text>
<line x1="1136" y1="175" x2="1358" y2="175" stroke="#F1F5F9" stroke-width="1"/>
<text x="1140" y="170" font-size="8" fill="#CBD5E1">&#183;</text>
<text x="1164" y="170" font-size="9" font-weight="600" fill="#1E293B">records_processed</text>
<text x="1354" y="170" text-anchor="end" font-size="8" fill="#64748B">integer</text>
<line x1="1136" y1="193" x2="1358" y2="193" stroke="#F1F5F9" stroke-width="1"/>
<text x="1140" y="188" font-size="8" fill="#CBD5E1">&#183;</text>
<text x="1164" y="188" font-size="9" font-weight="600" fill="#1E293B">records_failed</text>
<text x="1354" y="188" text-anchor="end" font-size="8" fill="#64748B">integer</text>
<line x1="1136" y1="211" x2="1358" y2="211" stroke="#F1F5F9" stroke-width="1"/>
<text x="1140" y="206" font-size="8" fill="#CBD5E1">&#183;</text>
<text x="1164" y="206" font-size="9" font-weight="600" fill="#1E293B">error_summary</text>
<text x="1354" y="206" text-anchor="end" font-size="8" fill="#64748B">text</text>
<line x1="1136" y1="229" x2="1358" y2="229" stroke="#F1F5F9" stroke-width="1"/>
<text x="1140" y="224" font-size="8" fill="#CBD5E1">&#183;</text>
<text x="1164" y="224" font-size="9" font-weight="600" fill="#1E293B">started_at</text>
<text x="1354" y="224" text-anchor="end" font-size="8" fill="#64748B">timestamptz</text>
<line x1="1136" y1="247" x2="1358" y2="247" stroke="#F1F5F9" stroke-width="1"/>
<text x="1140" y="242" font-size="8" fill="#CBD5E1">&#183;</text>
<text x="1164" y="242" font-size="9" font-weight="600" fill="#1E293B">completed_at</text>
<text x="1354" y="242" text-anchor="end" font-size="8" fill="#64748B">timestamptz</text>
<line x1="140" y1="314" x2="140" y2="336" stroke="#16A34A" stroke-width="2" marker-end="url(#fkG)"/>
<text x="148" y="328" font-size="8.5" font-weight="700" fill="#15803D">1 : N</text>
<line x1="250" y1="120" x2="294" y2="120" stroke="#2563EB" stroke-width="2" marker-end="url(#fkB)"/>
<text x="262" y="114" font-size="8.5" font-weight="700" fill="#1D4ED8">1 : N</text>
<line x1="406" y1="236" x2="406" y2="264" stroke="#2563EB" stroke-width="2" marker-end="url(#fkB)"/>
<text x="414" y="254" font-size="8.5" font-weight="700" fill="#1D4ED8">1 : N</text>
<line x1="406" y1="498" x2="406" y2="524" stroke="#2563EB" stroke-width="2" marker-end="url(#fkB)"/>
<text x="414" y="514" font-size="8.5" font-weight="700" fill="#1D4ED8">1 : 1</text>
<line x1="684" y1="380" x2="684" y2="404" stroke="#7C3AED" stroke-width="2" marker-end="url(#fkP)"/>
<text x="692" y="396" font-size="8.5" font-weight="700" fill="#6D28D9">1 : N</text>
<rect x="0" y="846" width="1500" height="28" fill="#FFFFFF" stroke="#E2E8F0" stroke-width="1"/>
<rect x="30" y="854" width="12" height="12" rx="3" fill="#FFFFFF" stroke="#16A34A" stroke-width="2"/><text x="48" y="864" font-size="8.5" font-weight="600" fill="#15803D">Farmer Domain</text>
<rect x="140" y="854" width="12" height="12" rx="3" fill="#FFFFFF" stroke="#2563EB" stroke-width="2"/><text x="158" y="864" font-size="8.5" font-weight="600" fill="#1D4ED8">Conversation &amp; Audit</text>
<rect x="290" y="854" width="12" height="12" rx="3" fill="#FFFFFF" stroke="#7C3AED" stroke-width="2"/><text x="308" y="864" font-size="8.5" font-weight="600" fill="#6D28D9">Knowledge &amp; pgvector</text>
<rect x="450" y="854" width="12" height="12" rx="3" fill="#FFFFFF" stroke="#0D9488" stroke-width="2"/><text x="468" y="864" font-size="8.5" font-weight="600" fill="#0F766E">Schemes &amp; Mandi</text>
<rect x="590" y="854" width="12" height="12" rx="3" fill="#FFFFFF" stroke="#D97706" stroke-width="2"/><text x="608" y="864" font-size="8.5" font-weight="600" fill="#B45309">Sync Pipelines</text>
<text x="760" y="864" font-size="8.5" font-weight="700" fill="#D97706">PK</text><text x="780" y="864" font-size="8.5" fill="#334155">= Primary Key</text>
<text x="880" y="864" font-size="8.5" font-weight="700" fill="#0284C7">FK</text><text x="900" y="864" font-size="8.5" fill="#334155">= Foreign Key</text>
<text x="1476" y="864" text-anchor="end" font-size="8.5" fill="#64748B">Simple Editable PPT Diagram</text>
<rect x="0" y="876" width="1500" height="24" fill="#FFFFFF" stroke="#E2E8F0" stroke-width="1"/>
<text x="24" y="892" font-size="8.5" fill="#64748B">KrishiVaani Database Schema &#183; Exact Migration Representation &#183; 10 Tables, Strict Foreign Keys, pgvector (768-dim)</text>
</svg>